<?xml version="1.0" standalone="no"?><!DOCTYPE svg PUBLIC "-//W3C//DTD SVG 1.1//EN" "http://www.w3.org/Graphics/SVG/1.1/DTD/svg11.dtd"><svg class="icon" width="200px" height="200.00px" viewBox="0 0 1024 1024" version="1.1" xmlns="http://www.w3.org/2000/svg"><path fill="#333333" d="M257.2 567.1h584.5c29 0 52.5-23.4 52.5-52.2V512c0-28.8-23.5-52.2-52.5-52.2H255.9L431 284.1c20.2-20.3 20.2-53 0-73.3l-0.4-0.4c-20.2-20.3-53.1-20.5-73.6-0.5l-0.5 0.5L71.8 496.1a26.013 26.013 0 0 0 0 36.7l55.7 55.9L352 813.8c20.4 20.5 53.7 20.6 74.3 0.4l0.4-0.4 1.7-1.7c20.3-20.3 20.3-53.1 0-73.4L257.2 567.1z" /></svg>