<?xml version="1.0" standalone="no"?><!DOCTYPE svg PUBLIC "-//W3C//DTD SVG 1.1//EN" "http://www.w3.org/Graphics/SVG/1.1/DTD/svg11.dtd"><svg class="icon" width="200px" height="200.00px" viewBox="0 0 1024 1024" version="1.1" xmlns="http://www.w3.org/2000/svg"><path fill="#333333" d="M588.4 516.1l198.8-198.8c21.1-21.1 21.1-55.3 0-76.4-21.1-21.1-55.3-21.1-76.4 0L512 439.7 313.2 241c-21.1-21.1-55.3-21.1-76.4 0-21.1 21.1-21.1 55.3 0 76.4l198.8 198.8-198 197.9c-21.1 21.1-21.1 55.3 0 76.4 21.1 21.1 55.3 21.1 76.4 0l198-197.9 197.9 197.9c21.1 21.1 55.3 21.1 76.4 0 21.1-21.1 21.1-55.3 0-76.4l-197.9-198z" /></svg>