<?xml version="1.0" standalone="no"?><!DOCTYPE svg PUBLIC "-//W3C//DTD SVG 1.1//EN" "http://www.w3.org/Graphics/SVG/1.1/DTD/svg11.dtd"><svg t="1618641382844" class="icon" viewBox="0 0 1024 1024" version="1.1" xmlns="http://www.w3.org/2000/svg" p-id="3299" xmlns:xlink="http://www.w3.org/1999/xlink" width="200" height="200"><defs><style type="text/css"></style></defs><path d="M730.5 260L475.9 514.5c-11.7 11.7-30.8 11.7-42.4 0l-14.1-14.1-113.2-113.2c-11.7-11.7-11.7-30.8 0-42.4l14.1-14.1c11.7-11.7 30.8-11.7 42.4 0l91.9 91.9 219.2-219.2c11.7-11.7 30.8-11.7 42.4 0l14.1 14.1c11.8 11.7 11.8 30.8 0.2 42.5z" fill="#515151" p-id="3300"></path><path d="M864.6 286.2C835.5 146.6 725.6 36.7 586 7.6c-23.8-5-48.5-7.6-73.9-7.6s-50 2.6-73.9 7.6c-139.6 29.1-249.5 139-278.6 278.6-5 23.8-7.6 48.5-7.6 73.9 0 96.2 37.7 183.6 99.2 248.2 4.1 4.3 8.3 8.5 12.6 12.6l181.7 181.7c36.7 36.7 96.3 36.7 133 0l181.7-181.7c4.3-4.1 8.5-8.3 12.6-12.6 61.5-64.6 99.2-152 99.2-248.2 0.2-25.4-2.5-50.1-7.4-73.9zM715 553.1c-3.2 3.3-6.5 6.6-9.8 9.8l-0.7 0.7-182.4 182.3c-3.4 3.4-7.3 4.1-9.9 4.1-2.7 0-6.5-0.7-9.9-4.1L319.9 563.6l-0.7-0.7c-3.3-3.2-6.6-6.5-9.8-9.8-49.8-52.3-77.2-120.8-77.2-193 0-19.4 2-38.7 5.9-57.5 11.1-53.2 37.4-101.8 76.1-140.5s87.3-65 140.5-76.1c18.8-3.9 38.1-5.9 57.5-5.9s38.7 2 57.5 5.9c53.2 11.1 101.8 37.4 140.5 76.1 38.7 38.7 65 87.3 76.1 140.5 3.9 18.8 5.9 38.1 5.9 57.5 0 72.1-27.4 140.7-77.2 193z m150.2 415.1H159c-17.1 0-30.9-13.9-30.9-30.9v-18.1c0-17.1 13.9-30.9 30.9-30.9h706.1c17.1 0 30.9 13.9 30.9 30.9v18.1c0.1 17.1-13.8 30.9-30.8 30.9z" fill="#515151" p-id="3301"></path></svg>