<?xml version="1.0" standalone="no"?><!DOCTYPE svg PUBLIC "-//W3C//DTD SVG 1.1//EN" "http://www.w3.org/Graphics/SVG/1.1/DTD/svg11.dtd"><svg t="1618646698573" class="icon" viewBox="0 0 1024 1024" version="1.1" xmlns="http://www.w3.org/2000/svg" p-id="11330" xmlns:xlink="http://www.w3.org/1999/xlink" width="200" height="200"><defs><style type="text/css"></style></defs><path d="M512.001024 0A512 512 0 0 0 0.001024 512a506.88 506.88 0 0 0 92.16 292.352V972.8a51.2 51.2 0 0 0 51.2 51.2H512.001024a512 512 0 0 0 0-1024z m0 921.6H194.561024v-134.144a51.2 51.2 0 0 0-10.24-30.72A406.016 406.016 0 0 1 102.401024 512a409.6 409.6 0 1 1 409.6 409.6z" p-id="11331"></path><path d="M716.801024 486.4a51.2 51.2 0 0 0-51.2 51.2 153.6 153.6 0 0 1-307.2 0 51.2 51.2 0 0 0-102.4 0 256 256 0 0 0 512 0 51.2 51.2 0 0 0-51.2-51.2z" p-id="11332"></path></svg>