<?xml version="1.0" standalone="no"?><!DOCTYPE svg PUBLIC "-//W3C//DTD SVG 1.1//EN" "http://www.w3.org/Graphics/SVG/1.1/DTD/svg11.dtd"><svg t="1618649213725" class="icon" viewBox="0 0 1024 1024" version="1.1" xmlns="http://www.w3.org/2000/svg" p-id="44956" xmlns:xlink="http://www.w3.org/1999/xlink" width="200" height="200"><defs><style type="text/css"></style></defs><path d="M711.296 182.485333l206.464 197.546667 2.730667 2.858667A42.624 42.624 0 0 1 896 460.501333H128a42.666667 42.666667 0 0 1 0-85.333333h650.624l-131.626667-125.909333a42.666667 42.666667 0 0 1-1.322666-60.330667l1.322666-1.322667 5.333334-5.12a42.666667 42.666667 0 0 1 58.965333 0zM312.704 875.349333l-206.464-197.546666-2.730667-2.858667A42.624 42.624 0 0 1 128 597.333333h768a42.666667 42.666667 0 0 1 0 85.333334H245.376l131.626667 125.909333a42.666667 42.666667 0 0 1 1.322666 60.330667l-1.322666 1.322666-5.333334 5.12a42.666667 42.666667 0 0 1-58.965333 0z" p-id="44957"></path></svg>