<?xml version="1.0" standalone="no"?><!DOCTYPE svg PUBLIC "-//W3C//DTD SVG 1.1//EN" "http://www.w3.org/Graphics/SVG/1.1/DTD/svg11.dtd"><svg t="1618644842585" class="icon" viewBox="0 0 1024 1024" version="1.1" xmlns="http://www.w3.org/2000/svg" p-id="9759" xmlns:xlink="http://www.w3.org/1999/xlink" width="200" height="200"><defs><style type="text/css"></style></defs><path d="M1006.142439 404.854634c-8.741463-27.473171-32.468293-47.453659-61.814634-51.82439l-258.497561-33.092683-102.4-270.985366c-0.62439-1.24878-1.24878-3.121951-1.873171-4.370732-13.112195-26.22439-38.712195-42.458537-68.058536-42.458536s-54.946341 16.234146-68.058537 42.458536c-0.62439 1.24878-1.24878 3.121951-1.873171 4.370732l-102.4 270.985366-262.243902 33.092683c-28.721951 4.370732-52.44878 23.726829-61.190244 51.82439-8.741463 28.097561-1.873171 57.443902 19.356097 78.048781l3.121952 3.121951 193.560975 157.970732-104.897561 279.102439c-1.24878 3.121951-1.873171 6.243902-2.497561 9.365853-3.746341 21.853659 2.497561 44.331707 16.858537 61.814634 14.360976 17.482927 35.590244 27.473171 58.068293 27.473171 12.487805 0 24.35122-3.121951 35.590244-8.741463 0.62439-0.62439 1.873171-0.62439 2.497561-1.248781l274.107317-164.214634 274.107317 164.214634c0.62439 0.62439 1.873171 0.62439 2.497561 1.248781 11.239024 5.619512 23.102439 8.741463 35.590244 8.741463 22.478049 0 43.707317-9.990244 58.068292-26.84878a75.763512 75.763512 0 0 0 16.858537-61.814635c-0.62439-3.121951-1.24878-6.243902-2.497561-9.365853l-105.521951-279.726829 191.063414-157.970732c1.24878-0.62439 1.873171-1.873171 3.121951-2.497561a77.923902 77.923902 0 0 0 19.356098-78.673171z m-292.839024 174.829268c-1.24878 0.62439-1.873171 1.873171-3.121952 2.497561-18.107317 17.482927-26.22439 42.458537-21.853658 67.434147 0.62439 3.121951 1.24878 6.243902 2.497561 8.741463l86.165854 230.4-226.653659-136.117073c-0.62439-0.62439-1.873171-0.62439-2.497561-1.24878a76.924878 76.924878 0 0 0-35.590244-8.741464c-12.487805 0-24.35122 3.121951-35.590244 8.741464-0.62439 0.62439-1.873171 0.62439-2.497561 1.24878l-226.029268 136.117073 86.165854-230.4c1.24878-3.121951 1.873171-6.243902 2.497561-9.365853 4.370732-24.35122-3.746341-49.95122-21.853659-67.434147l-3.121951-3.121951-164.214634-132.995122 221.034146-28.097561c24.97561-3.746341 46.204878-19.356098 57.443902-41.209756 0.62439-1.24878 1.24878-3.121951 1.873171-4.370732l84.917073-224.780488 84.917074 224.780488c0.62439 1.24878 1.24878 3.121951 1.87317 4.370732 11.239024 22.478049 32.468293 38.087805 58.068293 41.834146l217.912195 28.097561-162.341463 133.619512z" p-id="9760"></path></svg>