<?xml version="1.0" standalone="no"?><!DOCTYPE svg PUBLIC "-//W3C//DTD SVG 1.1//EN" "http://www.w3.org/Graphics/SVG/1.1/DTD/svg11.dtd"><svg t="1618644570864" class="icon" viewBox="0 0 1024 1024" version="1.1" xmlns="http://www.w3.org/2000/svg" p-id="9011" xmlns:xlink="http://www.w3.org/1999/xlink" width="200" height="200"><defs><style type="text/css"></style></defs><path d="M288 106.666667A181.333333 181.333333 0 0 1 469.333333 288V469.333333H288a181.333333 181.333333 0 1 1 0-362.666666zM384 384V288A96 96 0 1 0 288 384H384z m-96 170.666667H469.333333v181.333333A181.333333 181.333333 0 1 1 288 554.666667z m0 85.333333A96 96 0 1 0 384 736V640H288z m448-533.333333a181.333333 181.333333 0 1 1 0 362.666666H554.666667V288a181.333333 181.333333 0 0 1 181.333333-181.333333z m0 277.333333A96 96 0 1 0 640 288V384h96zM554.666667 554.666667h181.333333A181.333333 181.333333 0 1 1 554.666667 736V554.666667z m85.333333 85.333333v96A96 96 0 1 0 736 640H640z" p-id="9012"></path></svg>