<?xml version="1.0" standalone="no"?><!DOCTYPE svg PUBLIC "-//W3C//DTD SVG 1.1//EN" "http://www.w3.org/Graphics/SVG/1.1/DTD/svg11.dtd"><svg t="1618647319619" class="icon" viewBox="0 0 1024 1024" version="1.1" xmlns="http://www.w3.org/2000/svg" p-id="15976" xmlns:xlink="http://www.w3.org/1999/xlink" width="200" height="200"><defs><style type="text/css"></style></defs><path d="M184.832 645.632c30.72-156.672 166.4-274.432 329.216-274.432 162.816 0 297.472 117.76 329.216 274.432h71.168c-26.112-193.536-195.072-343.04-400.384-343.04-204.8 0-373.76 149.504-399.36 343.552h70.656v-0.512z m329.216-412.16c18.432 0 33.792-15.36 33.792-34.304V130.56c0-18.944-15.36-34.304-33.792-34.304-18.432 0-33.792 15.36-33.792 34.304v68.608c0 18.944 15.36 34.304 33.792 34.304z m403.456 152.064l47.616-48.64c13.312-13.312 13.312-34.816 0-48.64-13.312-13.312-34.304-13.312-47.616 0l-47.616 48.64c-13.312 13.312-13.312 34.816 0 48.64 13.312 12.8 34.304 12.8 47.616 0z m-806.912 0c13.312 13.312 34.304 13.312 47.616 0 13.312-13.312 13.312-34.816 0-48.64l-47.616-48.64c-13.312-13.312-34.304-13.312-47.616 0-13.312 13.312-13.312 34.816 0 48.64l47.616 48.64z m873.984 329.216H43.52c-18.432 0-33.792 15.36-33.792 34.304s15.36 34.304 33.792 34.304h942.08c18.432 0 33.792-15.36 33.792-34.304-0.512-19.456-15.872-34.304-34.816-34.304z m-33.28 136.704H76.8c-18.432 0-33.792 15.36-33.792 34.304s15.36 34.304 33.792 34.304h875.008c18.432 0 33.792-15.36 33.792-34.304-1.024-18.432-15.36-34.304-34.304-34.304z m0 0" p-id="15977"></path><path d="M114.176 646.144l800.256-0.512-101.888-173.568-274.432-147.456-224.768 62.464-141.824 159.744z" p-id="15978"></path></svg>