<?xml version="1.0" standalone="no"?><!DOCTYPE svg PUBLIC "-//W3C//DTD SVG 1.1//EN" "http://www.w3.org/Graphics/SVG/1.1/DTD/svg11.dtd"><svg class="icon" width="200px" height="200.00px" viewBox="0 0 1024 1024" version="1.1" xmlns="http://www.w3.org/2000/svg"><path fill="#000000" d="M922.048 593.536H102.016c-3.072 0-6.08 0-7.616 1.664h-3.008c-1.536 0-3.072 1.6-4.544 1.6-1.6 1.792-1.6 1.792-3.072 1.792-1.536 1.6-3.008 1.6-3.008 1.6-3.072 1.664-4.608 3.328-6.144 4.992-1.472 1.664-3.008 4.992-4.544 6.656 0 0 0 1.664-1.472 3.328 0 1.664-1.472 1.664-1.472 3.328s0 3.392-1.472 4.992v3.328c-1.664 3.264-1.664 9.92-0.128 14.848v3.328c1.472 1.664 1.472 3.392 1.472 4.992 1.472 1.664 1.472 1.664 1.472 3.328 1.472 1.664 1.472 3.328 1.472 3.328 1.536 3.328 3.072 4.992 4.544 6.656l261.248 285.504a37.12 37.12 0 0 0 53.12 0 42.816 42.816 0 0 0 0-58.112l-197.44-215.744h730.496c21.248 0 37.952-16.64 37.952-39.872s-16.576-41.536-37.824-41.536zM102.016 430.848h827.712c1.472 0 1.472-1.664 3.008-1.664s1.472 0 3.072-1.6c1.472 0 1.472-1.664 3.008-1.664 1.536-1.6 3.072-1.6 3.072-1.6 3.072-1.664 4.544-3.328 6.08-4.992s3.072-4.992 4.544-6.656c0 0 0-1.664 1.472-3.328 0-1.664 1.536-1.664 1.536-3.392 0-1.6 0-3.328 1.472-4.928v-3.328a25.728 25.728 0 0 0 0-14.912v-3.392c-1.472-1.664-1.472-3.328-1.472-4.928-1.536-1.664-1.536-1.664-1.536-3.328-1.472-1.664-1.472-3.328-1.472-3.328-1.472-3.392-3.072-4.992-4.544-6.656l-261.184-285.504c-7.744-8.32-16.768-11.648-25.92-11.648s-19.776 3.328-27.392 11.648a46.4 46.4 0 0 0 0 58.112l198.912 215.744H102.016c-21.248 0-38.016 18.304-38.016 39.872 0 23.232 16.768 41.472 38.016 41.472z" /></svg>