<?xml version="1.0" standalone="no"?><!DOCTYPE svg PUBLIC "-//W3C//DTD SVG 1.1//EN" "http://www.w3.org/Graphics/SVG/1.1/DTD/svg11.dtd"><svg class="icon" width="200px" height="200.00px" viewBox="0 0 1024 1024" version="1.1" xmlns="http://www.w3.org/2000/svg"><path fill="#000000" d="M513.006422 959.821305c-120.123868 0-233.051847-46.778396-317.993424-131.713834C110.064256 743.159754 63.28586 630.224612 63.28586 510.100744c0-120.124891 46.778396-233.051847 131.727137-317.993424C279.941272 107.171881 392.882554 60.392462 513.006422 60.392462c120.111588 0 233.051847 46.778396 317.994448 131.713834 175.34761 175.35375 175.334307 460.660728 0 635.994012C746.058268 913.042909 633.131313 959.821305 513.006422 959.821305zM513.006422 141.080156c-98.573039 0-191.250812 38.386262-260.945127 108.081601C182.359816 318.863235 143.972531 411.533844 143.972531 510.100744c0 98.574063 38.387285 191.243649 108.087741 260.95229 69.708642 69.694315 162.372088 108.080577 260.945127 108.080577 98.574063 0 191.237509-38.386262 260.946151-108.087741 143.880945-143.874805 143.880945-377.99089 0-521.885138C704.243931 179.466418 611.568205 141.080156 513.006422 141.080156zM513.506818 568.060807c-22.286586 0-40.343847-18.063401-40.343847-40.342824L473.162972 303.097156c0-22.279423 18.057261-40.343847 40.343847-40.343847 22.285562 0 40.343847 18.064424 40.343847 40.343847l0 224.620827C553.849642 549.997406 535.792381 568.060807 513.506818 568.060807zM393.880277 696.459129c-10.32209 0-20.644179-3.939729-28.523637-11.812023-15.758915-15.758915-15.758915-41.302685 0-57.05546l119.624495-119.638821c15.733333-15.758915 41.289382-15.752776 57.048297-0.00614 15.758915 15.758915 15.758915 41.301661 0 57.05546L422.404937 684.639942C414.538783 692.5194 404.20339 696.459129 393.880277 696.459129z" /></svg>